<?xml version="1.0" encoding="UTF-8" standalone="no"?>
<!-- Created with Inkscape (http://www.inkscape.org/) -->

<svg
   version="1.1"
   id="svg94"
   width="832"
   height="1248"
   viewBox="0 0 832 1248"
   xmlns="http://www.w3.org/2000/svg"
   xmlns:svg="http://www.w3.org/2000/svg">
  <defs
     id="defs98" />
  <g
     id="g100">
    <g
       id="g262">
      <path
         style="fill:#12c191"
         d="m 194,674.48002 v -15.51998 l 4.38348,-8.73002 c 7.8814,-15.69639 11.36049,-30.15638 11.81777,-49.11769 L 210.5,588.72465 201,585.99089 c -14.73105,-4.23908 -28.83542,-10.97116 -38.25,-18.2569 L 159,564.83194 V 551.41597 C 159,542.04936 159.34369,538 160.13868,538 c 0.62628,0 4.11378,2.38173 7.75,5.29273 17.49318,14.00425 37.21849,22.73113 55.11132,24.38237 10.61408,0.97952 10,-0.25931 10,20.17366 0,36.21152 -5.57912,59.4258 -19.36459,80.57458 C 208.40399,676.44904 196.62824,690 194.88534,690 194.3984,690 194,683.01601 194,674.48002 Z"
         id="path268" />
      <path
         style="fill:#666f8e"
         d="m 152.44113,710.44483 c -1.83031,-1.46637 -1.7984,-1.48719 0.55887,-0.36454 3.06103,1.45781 3.62834,1.91971 2.3578,1.91971 -0.53655,0 -1.84905,-0.69982 -2.91667,-1.55517 z m -11,-6 c -1.86402,-1.49339 -1.85176,-1.51185 0.30887,-0.46481 1.2375,0.59969 2.25,1.29951 2.25,1.55516 0,0.76522 -0.51861,0.54424 -2.55887,-1.09035 z M 177,703.57037 c 0,-0.275 0.9,-0.98167 2,-1.57037 1.1,-0.5887 2,-0.84537 2,-0.57037 0,0.275 -0.9,0.98167 -2,1.57037 -1.1,0.5887 -2,0.84537 -2,0.57037 z M 130.87244,697.25 c -1.24387,-1.58606 -1.2085,-1.62143 0.37756,-0.37756 0.9625,0.75485 1.75,1.54235 1.75,1.75 0,0.82304 -0.82119,0.29331 -2.12756,-1.37244 z M 185,698.62244 c 0,-0.20765 0.7875,-0.99515 1.75,-1.75 1.58606,-1.24387 1.62143,-1.2085 0.37756,0.37756 C 185.82119,698.91575 185,699.44548 185,698.62244 Z M 126.87244,694.25 c -1.24387,-1.58606 -1.2085,-1.62143 0.37756,-0.37756 0.9625,0.75485 1.75,1.54235 1.75,1.75 0,0.82304 -0.82119,0.29331 -2.12756,-1.37244 z M 189,695.62244 c 0,-0.20765 0.7875,-0.99515 1.75,-1.75 1.58606,-1.24387 1.62143,-1.2085 0.37756,0.37756 C 189.82119,695.91575 189,696.44548 189,695.62244 Z M 117.97111,686.25 111.5,679.5 l 6.75,6.47111 c 3.7125,3.55911 6.75,6.59661 6.75,6.75 0,0.73602 -1.01824,-0.20142 -7.02889,-6.47111 z M 159,687.60699 c 0,-0.21616 0.69837,-0.661 1.55194,-0.98855 0.88992,-0.34149 1.29132,-0.17385 0.94098,0.39301 C 160.90566,687.96166 159,688.4169 159,687.60699 Z m 15,-8.98455 c 0,-0.20765 0.7875,-0.99515 1.75,-1.75 1.58606,-1.24387 1.62143,-1.2085 0.37756,0.37756 C 174.82119,678.91575 174,679.44548 174,678.62244 Z M 108.87244,676.25 c -1.24387,-1.58606 -1.2085,-1.62143 0.37756,-0.37756 1.66575,1.30637 2.19548,2.12756 1.37244,2.12756 -0.20765,0 -0.99515,-0.7875 -1.75,-1.75 z m 31,0 c -1.24387,-1.58606 -1.2085,-1.62143 0.37756,-0.37756 1.66575,1.30637 2.19548,2.12756 1.37244,2.12756 -0.20765,0 -0.99515,-0.7875 -1.75,-1.75 z M 184.5,669 c 3.8205,-3.85 7.17136,-7 7.44636,-7 0.275,0 -2.62586,3.15 -6.44636,7 -3.8205,3.85 -7.17136,7 -7.44636,7 -0.275,0 2.62586,-3.15 6.44636,-7 z m -50.57569,2.25 -2.42431,-2.75 2.75,2.42431 c 2.57029,2.26589 3.20859,3.07569 2.42431,3.07569 -0.17912,0 -1.41662,-1.2375 -2.75,-2.75 z m -29.64617,-1.5 c -1.49918,-1.93844 -2.44224,-3.75 -1.95217,-3.75 0.24421,0 1.18114,1.125 2.08207,2.5 1.68584,2.57291 1.59195,3.47635 -0.1299,1.25 z m 23.12685,-6 -1.90499,-2.25 2.25,1.90499 c 1.2375,1.04774 2.25,2.06024 2.25,2.25 0,0.80025 -0.80479,0.20945 -2.59501,-1.90499 z M 100,663 c -0.588702,-1.1 -0.845368,-2 -0.570368,-2 0.275,0 0.981668,0.9 1.570368,2 0.5887,1.1 0.84537,2 0.57037,2 -0.275,0 -0.98167,-0.9 -1.57037,-2 z m 180.76166,-4.70726 c 1.24391,-0.23919 3.04391,-0.23011 4,0.0202 0.95609,0.25029 -0.0617,0.446 -2.26166,0.4349 -2.2,-0.0111 -2.98225,-0.21589 -1.73834,-0.45508 z m 50,0 c 1.24391,-0.23919 3.04391,-0.23011 4,0.0202 0.95609,0.25029 -0.0617,0.446 -2.26166,0.4349 -2.2,-0.0111 -2.98225,-0.21589 -1.73834,-0.45508 z m 131,0 c 1.24391,-0.23919 3.04391,-0.23011 4,0.0202 0.95609,0.25029 -0.0617,0.446 -2.26166,0.4349 -2.2,-0.0111 -2.98225,-0.21589 -1.73834,-0.45508 z m 68.48834,-0.009 c 1.5125,-0.22913 3.9875,-0.22913 5.5,0 1.5125,0.22912 0.275,0.41659 -2.75,0.41659 -3.025,0 -4.2625,-0.18747 -2.75,-0.41659 z m 112.5,0.0105 c 1.2375,-0.23836 3.2625,-0.23836 4.5,0 1.2375,0.23835 0.225,0.43337 -2.25,0.43337 -2.475,0 -3.4875,-0.19502 -2.25,-0.43337 z m 61.51903,0.0127 c 0.97297,-0.25354 2.32297,-0.23687 3,0.0371 0.67703,0.27393 -0.11903,0.48137 -1.76903,0.46099 -1.65,-0.0204 -2.20394,-0.2445 -1.23097,-0.49804 z M 96.162441,655.45717 c -1.675489,-3.67729 -1.355835,-4.46179 0.455855,-1.11876 0.846022,1.56112 1.351103,3.02552 1.122403,3.25422 -0.2287,0.2287 -0.938916,-0.73225 -1.578258,-2.13546 z M 273,657 c -1.82797,-1.18132 -0.24909,-1.18132 2.5,0 1.31874,0.56668 1.48906,0.87815 0.5,0.9144 -0.825,0.0302 -2.175,-0.38124 -3,-0.9144 z m 86.22902,-20.75 0.22902,-21.75 0.29087,21.25 0.29087,21.25 h 4.41369 c 4.04727,0 4.44827,-0.2283 4.83028,-2.75 0.38774,-2.55956 0.42696,-2.52493 0.56642,0.5 L 370,658 h -5.5 -5.5 z m 26.99124,7 0.22026,-14.75 0.30687,14.19632 0.30687,14.19631 4.72287,0.37344 4.72287,0.37343 -5.25,0.18025 L 386,658 Z m 21.21882,13.45184 c -0.27398,-0.71398 -0.35856,-7.57648 -0.18796,-15.25 L 407.56131,627.5 407.78065,642.25 408,657 h 4.5 4.5 v -17.54044 -17.54044 l 8.25,0.29044 8.25,0.29044 0.0583,8.5 0.0583,8.5 -0.34727,-8.25 -0.34728,-8.25 h -7.46106 -7.46107 v 17.5 17.5 h -5.03138 c -3.20216,0 -5.2125,-0.47196 -5.52954,-1.29816 z m 27.81092,0.58191 c 1.5125,-0.22913 3.9875,-0.22913 5.5,0 1.5125,0.22912 0.275,0.41659 -2.75,0.41659 -3.025,0 -4.2625,-0.18747 -2.75,-0.41659 z m 18.82673,-1.87264 c -1.6922,-1.4239 -3.06305,-3.1114 -3.04632,-3.75 0.0167,-0.63861 0.50623,-0.34297 1.08779,0.65698 0.58157,0.99995 2.48038,2.68577 4.2196,3.74626 1.73921,1.0605 2.63423,1.92986 1.98893,1.93191 -0.64531,0.002 -2.55781,-1.16126 -4.25,-2.58515 z m 22.30731,1.1473 c -0.30425,-0.79287 -0.34233,-2.25537 -0.0846,-3.25 0.31265,-1.20668 0.50717,-0.9116 0.58457,0.8868 0.10657,2.47603 0.50228,2.72567 4.866,3.06975 l 4.75,0.37454 -4.78138,0.18025 c -3.36838,0.12698 -4.94487,-0.24577 -5.33458,-1.26134 z m 47.42846,0.75848 c 0.72187,-0.28887 1.58438,-0.25335 1.91667,0.0789 0.33229,0.33229 -0.25834,0.56864 -1.3125,0.52522 -1.16495,-0.048 -1.4019,-0.28494 -0.60417,-0.60416 z M 561.116,655.75 c 0.0873,-1.69317 0.22918,-1.81691 0.57333,-0.5 0.34811,1.33211 1.50765,1.75 4.85577,1.75 h 4.39846 l 0.30887,-13.75 0.30888,-13.75 0.21934,14.25 L 572,658 h -5.5 c -5.07141,0 -5.49096,-0.17533 -5.384,-2.25 z m 32.10949,1.51596 4.72548,-0.37354 0.30108,-16.19621 0.30108,-16.19621 0.22344,16.75 L 599,658 l -5.25,-0.18025 -5.25,-0.18025 z m 14.24289,-0.48775 c -0.28116,-0.73272 -0.37922,-10.54506 -0.2179,-21.80521 L 607.5438,614.5 607.7719,635.75 608,657 h 4.48011 4.48011 l 0.30045,-21.00064 0.30045,-21.00064 -0.0306,21.25064 L 617.5,657.5 l -4.7602,0.30521 c -3.27075,0.20971 -4.92016,-0.11164 -5.27142,-1.027 z m 67.76614,0.48738 4.73452,-0.37391 0.28169,-28.19584 0.28169,-28.19584 0.23379,28.75 L 681,658 l -5.25,-0.18025 -5.25,-0.18025 z m 47,0 4.73452,-0.37391 0.28169,-28.19584 0.28169,-28.19584 0.23379,28.75 L 728,658 722.75,657.81975 717.5,657.6395 Z M 121,655 c -0.5887,-1.1 -0.84537,-2 -0.57037,-2 0.275,0 0.98167,0.9 1.57037,2 0.5887,1.1 0.84537,2 0.57037,2 -0.275,0 -0.98167,-0.9 -1.57037,-2 z m 199.87244,0.25 c -1.26951,-1.61876 -1.22245,-1.63998 0.62756,-0.28297 1.1,0.80687 2.1875,1.59437 2.41667,1.75 0.22916,0.15563 -0.0532,0.28297 -0.62756,0.28297 -0.57432,0 -1.66182,-0.7875 -2.41667,-1.75 z m 197.98834,-0.30935 -2.36078,-2.05935 2.75,1.67436 c 1.5125,0.9209 2.75,1.84761 2.75,2.05935 0,0.78084 -0.83549,0.33522 -3.13922,-1.67436 z M 712,656.68709 c 0,-0.1721 1.4625,-1.6346 3.25,-3.25 l 3.25,-2.93709 -2.93709,3.25 C 712.82513,656.77946 712,657.45965 712,656.68709 Z m -369,-1 c 0,-0.1721 1.4625,-1.6346 3.25,-3.25 l 3.25,-2.93709 -2.93709,3.25 C 343.82513,655.77946 343,656.45965 343,655.68709 Z M 396.39739,642 c 0,-7.975 0.1553,-11.2375 0.34512,-7.25 0.18981,3.9875 0.18981,10.5125 0,14.5 -0.18982,3.9875 -0.34512,0.725 -0.34512,-7.25 z m 46,0 c 0,-7.975 0.1553,-11.2375 0.34512,-7.25 0.18981,3.9875 0.18981,10.5125 0,14.5 -0.18982,3.9875 -0.34512,0.725 -0.34512,-7.25 z m 189.47505,12.25 c -1.24387,-1.58606 -1.2085,-1.62143 0.37756,-0.37756 0.9625,0.75485 1.75,1.54235 1.75,1.75 0,0.82304 -0.82119,0.29331 -2.12756,-1.37244 z m -367.43535,-3.5 -2.93709,-3.25 3.25,2.93709 c 1.7875,1.6154 3.25,3.0779 3.25,3.25 0,0.77256 -0.82513,0.0924 -3.56291,-2.93709 z m 249.43535,-0.5 c -1.24387,-1.58606 -1.2085,-1.62143 0.37756,-0.37756 0.9625,0.75485 1.75,1.54235 1.75,1.75 0,0.82304 -0.82119,0.29331 -2.12756,-1.37244 z m 113.51515,-0.78121 c -0.91218,-1.39216 -1.4766,-2.71311 -1.25427,-2.93544 0.22233,-0.22233 1.16235,0.91671 2.08895,2.53121 2.06367,3.59573 1.45092,3.89249 -0.83468,0.40423 z m -296.11856,0.83822 c 0.97297,-0.25354 2.32297,-0.23687 3,0.0371 0.67703,0.27393 -0.11903,0.48137 -1.76903,0.46099 -1.65,-0.0204 -2.20394,-0.2445 -1.23097,-0.49804 z M 552.08029,649 C 553.5381,645.93897 554,645.37166 554,646.6422 c 0,0.53655 -0.69982,1.84905 -1.55517,2.91667 -1.46637,1.83031 -1.48719,1.7984 -0.36454,-0.55887 z m 91.68137,1.29274 c 1.24391,-0.23919 3.04391,-0.23011 4,0.0202 0.95609,0.25029 -0.0617,0.446 -2.26166,0.4349 -2.2,-0.0111 -2.98225,-0.21589 -1.73834,-0.45508 z m 46.1925,-1.37839 c -0.61391,-1.1471 -0.92784,-2.274 -0.69762,-2.50422 0.23022,-0.23022 0.93203,0.70832 1.55958,2.08564 1.37807,3.02454 0.70709,3.35038 -0.86196,0.41858 z m -573,-1 c -0.61391,-1.1471 -0.92784,-2.274 -0.69762,-2.50422 0.23022,-0.23022 0.93203,0.70832 1.55958,2.08564 1.37807,3.02454 0.70709,3.35038 -0.86196,0.41858 z M 281.25,649.31067 c 0.9625,-0.25152 2.5375,-0.25152 3.5,0 0.9625,0.25153 0.175,0.45733 -1.75,0.45733 -1.925,0 -2.7125,-0.2058 -1.75,-0.45733 z M 302.63799,647.5 C 304.95005,643.55157 305,643.49283 305,644.72255 c 0,0.58073 -0.92671,2.11823 -2.05935,3.41667 L 300.8813,650.5 Z m 22.767,0.25 -1.90499,-2.25 2.5,1.98934 c 1.375,1.09414 2.6875,2.10664 2.91667,2.25 0.22916,0.14336 -0.0386,0.26066 -0.59502,0.26066 -0.55642,0 -1.86892,-1.0125 -2.91666,-2.25 z m 148.20096,0.0979 c 1.04173,-1.45863 2.09405,-2.45863 2.33849,-2.22222 0.24445,0.23641 -0.60787,1.42984 -1.89404,2.65206 l -2.3385,2.22222 z m 56.64405,1.43581 c 1.5125,-0.22913 3.9875,-0.22913 5.5,0 1.5125,0.22912 0.275,0.41659 -2.75,0.41659 -3.025,0 -4.2625,-0.18747 -2.75,-0.41659 z M 636.92431,647.25 634.5,644.5 l 2.75,2.42431 c 1.5125,1.33338 2.75,2.57088 2.75,2.75 0,0.78428 -0.8098,0.14598 -3.07569,-2.42431 z m 63.14827,-0.88486 c -1.13992,-1.44917 -2.04406,-3.36167 -2.00919,-4.25 0.0383,-0.97737 0.45401,-0.63609 1.05265,0.8643 0.54409,1.36369 1.71031,3.27619 2.5916,4.25 0.88128,0.97381 1.34025,1.77056 1.01993,1.77056 -0.32033,0 -1.51507,-1.18569 -2.65499,-2.63486 z M 713,648.62244 c 0,-0.20765 0.7875,-0.99515 1.75,-1.75 1.58606,-1.24387 1.62143,-1.2085 0.37756,0.37756 C 713.82119,648.91575 713,649.44548 713,648.62244 Z M 522.87244,646.25 c -1.24387,-1.58606 -1.2085,-1.62143 0.37756,-0.37756 0.9625,0.75485 1.75,1.54235 1.75,1.75 0,0.82304 -0.82119,0.29331 -2.12756,-1.37244 z M 541,647.62244 c 0,-0.20765 0.7875,-0.99515 1.75,-1.75 1.58606,-1.24387 1.62143,-1.2085 0.37756,0.37756 C 541.82119,647.91575 541,648.44548 541,647.62244 Z M 271.87244,645.25 c -1.24387,-1.58606 -1.2085,-1.62143 0.37756,-0.37756 0.9625,0.75485 1.75,1.54235 1.75,1.75 0,0.82304 -0.82119,0.29331 -2.12756,-1.37244 z m 385.39659,0.057 c 0.97297,-0.25354 2.32297,-0.23687 3,0.0371 0.67703,0.27393 -0.11903,0.48137 -1.76903,0.46099 -1.65,-0.0204 -2.20394,-0.2445 -1.23097,-0.49804 z M 511.15789,643 c 0,-1.375 0.22698,-1.9375 0.50439,-1.25 0.27741,0.6875 0.27741,1.8125 0,2.5 -0.27741,0.6875 -0.50439,0.125 -0.50439,-1.25 z m 113.92106,0.41667 c 0.048,-1.16495 0.28494,-1.4019 0.60416,-0.60417 0.28887,0.72187 0.25335,1.58438 -0.0789,1.91667 -0.33229,0.33229 -0.56864,-0.25834 -0.52522,-1.3125 z M 688.15789,643 c 0,-1.375 0.22698,-1.9375 0.50439,-1.25 0.27741,0.6875 0.27741,1.8125 0,2.5 -0.27741,0.6875 -0.50439,0.125 -0.50439,-1.25 z m -429.53435,-0.53866 c -0.96498,-2.51469 -0.68031,-3.16355 0.49853,-1.13634 0.58369,1.00375 0.8506,2.03566 0.59313,2.29313 -0.25747,0.25747 -0.74872,-0.26309 -1.09166,-1.15679 z m 35.94075,0.24553 c 0.37553,-0.98622 0.93469,-1.54122 1.24258,-1.23333 0.30789,0.30789 6.4e-4,1.11479 -0.68278,1.79313 -0.98762,0.98026 -1.10248,0.8654 -0.5598,-0.5598 z m 181.35662,-1.95596 c -0.29765,-2.14974 -0.14485,-3.37485 0.35817,-2.87183 0.4825,0.4825 0.71609,2.1696 0.5191,3.7491 -0.32972,2.64362 -0.39943,2.5739 -0.87727,-0.87727 z M 554.19495,641.5 c 0.0204,-1.65 0.2445,-2.20394 0.49804,-1.23097 0.25354,0.97297 0.23687,2.32297 -0.0371,3 -0.27393,0.67703 -0.48137,-0.11903 -0.46099,-1.76903 z m 6.96294,0.5 c 0,-1.375 0.22698,-1.9375 0.50439,-1.25 0.27741,0.6875 0.27741,1.8125 0,2.5 -0.27741,0.6875 -0.50439,0.125 -0.50439,-1.25 z m -248.96294,-1.5 c 0.0204,-1.65 0.2445,-2.20394 0.49804,-1.23097 0.25354,0.97297 0.23687,2.32297 -0.0371,3 -0.27393,0.67703 -0.48137,-0.11903 -0.46099,-1.76903 z m 9.884,0.91667 c 0.048,-1.16495 0.28494,-1.4019 0.60416,-0.60417 0.28887,0.72187 0.25335,1.58438 -0.0789,1.91667 -0.33229,0.33229 -0.56864,-0.25834 -0.52522,-1.3125 z m 222,0 c 0.048,-1.16495 0.28494,-1.4019 0.60416,-0.60417 0.28887,0.72187 0.25335,1.58438 -0.0789,1.91667 -0.33229,0.33229 -0.56864,-0.25834 -0.52522,-1.3125 z m 173,0 c 0.048,-1.16495 0.28494,-1.4019 0.60416,-0.60417 0.28887,0.72187 0.25335,1.58438 -0.0789,1.91667 -0.33229,0.33229 -0.56864,-0.25834 -0.52522,-1.3125 z m -255.34562,-0.54076 c 0.67834,-0.68342 1.48524,-0.99067 1.79313,-0.68278 0.30789,0.30789 -0.24711,0.86705 -1.23333,1.24258 -1.4252,0.54268 -1.54006,0.42782 -0.5598,-0.5598 z M 514.75,640.29427 c 1.2375,-0.23836 3.2625,-0.23836 4.5,0 1.2375,0.23835 0.225,0.43337 -2.25,0.43337 -2.475,0 -3.4875,-0.19502 -2.25,-0.43337 z m -218.01667,-1.41836 c 0.67834,-0.68342 1.48524,-0.99067 1.79313,-0.68278 0.30789,0.30789 -0.24711,0.86705 -1.23333,1.24258 -1.4252,0.54268 -1.54006,0.42782 -0.5598,-0.5598 z M 305,639 c -0.90129,-0.58246 -1.02463,-0.97549 -0.30902,-0.98469 0.65504,-0.008 1.4691,0.43469 1.80902,0.98469 0.7673,1.24153 0.42112,1.24153 -1.5,0 z m 37.27236,-3 c 0,-2.475 0.19502,-3.4875 0.43337,-2.25 0.23836,1.2375 0.23836,3.2625 0,4.5 -0.23835,1.2375 -0.43337,0.225 -0.43337,-2.25 z m 10,0 c 0,-2.475 0.19502,-3.4875 0.43337,-2.25 0.23836,1.2375 0.23836,3.2625 0,4.5 -0.23835,1.2375 -0.43337,0.225 -0.43337,-2.25 z M 465.75,639.33772 c 0.6875,-0.27741 1.8125,-0.27741 2.5,0 0.6875,0.27741 0.125,0.50439 -1.25,0.50439 -1.375,0 -1.9375,-0.22698 -1.25,-0.50439 z M 624.232,637 c 0,-1.925 0.2058,-2.7125 0.45733,-1.75 0.25152,0.9625 0.25152,2.5375 0,3.5 -0.25153,0.9625 -0.45733,0.175 -0.45733,-1.75 z m -82.35956,0.25 c -1.24387,-1.58606 -1.2085,-1.62143 0.37756,-0.37756 0.9625,0.75485 1.75,1.54235 1.75,1.75 0,0.82304 -0.82119,0.29331 -2.12756,-1.37244 z m -284.79349,-0.83333 c 0.048,-1.16495 0.28494,-1.4019 0.60416,-0.60417 0.28887,0.72187 0.25335,1.58438 -0.0789,1.91667 -0.33229,0.33229 -0.56864,-0.25834 -0.52522,-1.3125 z M 697.15789,636 c 0,-1.375 0.22698,-1.9375 0.50439,-1.25 0.27741,0.6875 0.27741,1.8125 0,2.5 -0.27741,0.6875 -0.50439,0.125 -0.50439,-1.25 z M 89.078947,635.41667 c 0.04798,-1.16495 0.284941,-1.4019 0.604167,-0.60417 0.288871,0.72187 0.253344,1.58438 -0.07895,1.91667 -0.332292,0.33229 -0.568641,-0.25834 -0.52522,-1.3125 z m 178.000003,0 c 0.048,-1.16495 0.28494,-1.4019 0.60416,-0.60417 0.28887,0.72187 0.25335,1.58438 -0.0789,1.91667 -0.33229,0.33229 -0.56864,-0.25834 -0.52522,-1.3125 z M 312.15789,632 c 0,-1.375 0.22698,-1.9375 0.50439,-1.25 0.27741,0.6875 0.27741,1.8125 0,2.5 -0.27741,0.6875 -0.50439,0.125 -0.50439,-1.25 z m 351,0 c 0,-1.375 0.22698,-1.9375 0.50439,-1.25 0.27741,0.6875 0.27741,1.8125 0,2.5 -0.27741,0.6875 -0.50439,0.125 -0.50439,-1.25 z M 88.078947,631.41667 c 0.04798,-1.16495 0.284941,-1.4019 0.604167,-0.60417 0.288871,0.72187 0.253344,1.58438 -0.07895,1.91667 -0.332292,0.33229 -0.568641,-0.25834 -0.52522,-1.3125 z m 378.190083,0.89034 c 0.97297,-0.25354 2.32297,-0.23687 3,0.0371 0.67703,0.27393 -0.11903,0.48137 -1.76903,0.46099 -1.65,-0.0204 -2.20394,-0.2445 -1.23097,-0.49804 z M 549.87244,631.25 c -1.24387,-1.58606 -1.2085,-1.62143 0.37756,-0.37756 0.9625,0.75485 1.75,1.54235 1.75,1.75 0,0.82304 -0.82119,0.29331 -2.12756,-1.37244 z m 11.59041,-14.75 0.0371,-16 3,-0.14474 c 2.80127,-0.13516 2.81945,-0.11435 0.27446,0.31406 l -2.72553,0.4588 -0.31162,15.68594 -0.31161,15.68594 0.0371,-16 z m 82.50309,15.77167 c 5.89102,-0.21933 9.7908,-0.80926 10.32613,-1.56205 0.61254,-0.86136 0.74296,-0.77776 0.453,0.29038 -0.32565,1.19962 -2.39351,1.51243 -10.32613,1.56206 l -9.91894,0.062 9.46594,-0.35244 z m 73.11301,-0.855 c 0.048,-1.16495 0.28494,-1.4019 0.60416,-0.60417 0.28887,0.72187 0.25335,1.58438 -0.0789,1.91667 -0.33229,0.33229 -0.56864,-0.25834 -0.52522,-1.3125 z m -395,-0.47554 c -0.0434,-0.85738 0.62087,-2.43238 1.47622,-3.5 1.53028,-1.91007 1.54044,-1.90913 0.63512,0.0589 -0.50602,1.1 -1.17032,2.675 -1.47622,3.5 -0.48044,1.29574 -0.56693,1.28773 -0.63512,-0.0589 z m 47,-0.52446 c 0.048,-1.16495 0.28494,-1.4019 0.60416,-0.60417 0.28887,0.72187 0.25335,1.58438 -0.0789,1.91667 -0.33229,0.33229 -0.56864,-0.25834 -0.52522,-1.3125 z M 688.15789,630 c 0,-1.375 0.22698,-1.9375 0.50439,-1.25 0.27741,0.6875 0.27741,1.8125 0,2.5 -0.27741,0.6875 -0.50439,0.125 -0.50439,-1.25 z m -432,-1 c 0,-1.375 0.22698,-1.9375 0.50439,-1.25 0.27741,0.6875 0.27741,1.8125 0,2.5 -0.27741,0.6875 -0.50439,0.125 -0.50439,-1.25 z m 10,0 c 0,-1.375 0.22698,-1.9375 0.50439,-1.25 0.27741,0.6875 0.27741,1.8125 0,2.5 -0.27741,0.6875 -0.50439,0.125 -0.50439,-1.25 z m -156.07894,-0.58333 c 0.048,-1.16495 0.28494,-1.4019 0.60416,-0.60417 0.28887,0.72187 0.25335,1.58438 -0.0789,1.91667 -0.3323,0.33229 -0.56864,-0.25834 -0.52522,-1.3125 z M 476.15789,628 c 0,-1.375 0.22698,-1.9375 0.50439,-1.25 0.27741,0.6875 0.27741,1.8125 0,2.5 -0.27741,0.6875 -0.50439,0.125 -0.50439,-1.25 z M 87.078947,627.41667 c 0.04798,-1.16495 0.284941,-1.4019 0.604167,-0.60417 0.288871,0.72187 0.253344,1.58438 -0.07895,1.91667 -0.332292,0.33229 -0.568641,-0.25834 -0.52522,-1.3125 z M 572,628.05902 c 0,-0.51754 0.44485,-1.21592 0.98855,-1.55194 0.56686,-0.35034 0.7345,0.0511 0.39301,0.94098 C 572.71677,629.18048 572,629.49745 572,628.05902 Z m 142.60595,-1.90696 -1.89405,-2.65206 2.3385,2.22222 c 1.28617,1.22222 2.13849,2.41565 1.89404,2.65206 -0.24444,0.23641 -1.29676,-0.76359 -2.33849,-2.22222 z M 383.28573,625.30055 C 382.06789,624.03525 381.43564,623 381.88075,623 c 0.97515,0 4.61334,3.88818 4.02979,4.30668 -0.2258,0.16194 -1.40696,-0.74082 -2.62481,-2.00613 z m 74.7976,2.41648 c 0.22917,-0.15563 1.31667,-0.94313 2.41667,-1.75 1.85001,-1.35701 1.89707,-1.33579 0.62756,0.28297 -0.75485,0.9625 -1.84235,1.75 -2.41667,1.75 -0.57432,0 -0.85672,-0.12734 -0.62756,-0.28297 z M 542,627 c -0.825,-0.53316 -1.05,-0.96937 -0.5,-0.96937 0.55,0 1.675,0.43621 2.5,0.96937 0.825,0.53316 1.05,0.96937 0.5,0.96937 -0.55,0 -1.675,-0.43621 -2.5,-0.96937 z m -90.98469,-1.75 c 0.009,-1.07943 0.29683,-1.32848 0.75,-0.64994 0.40408,0.60503 1.40969,1.357 2.23469,1.67105 1.00229,0.38154 0.75344,0.59719 -0.75,0.64994 -1.51164,0.053 -2.24497,-0.49533 -2.23469,-1.67105 z M 314,625.05902 c 0,-0.51754 0.44485,-1.21592 0.98855,-1.55194 0.56686,-0.35034 0.7345,0.0511 0.39301,0.94098 C 314.71677,626.18048 314,626.49745 314,625.05902 Z m 335,-1.18001 c -1.925,-1.03175 -2.76235,-1.8766 -1.86078,-1.87746 0.90156,-8.5e-4 2.70156,0.88348 4,1.96518 2.8603,2.38287 2.43803,2.36556 -2.13922,-0.0877 z m -539.92105,-0.46234 c 0.048,-1.16495 0.28494,-1.4019 0.60416,-0.60417 0.28887,0.72187 0.25335,1.58438 -0.0789,1.91667 -0.3323,0.33229 -0.56864,-0.25834 -0.52522,-1.3125 z M 484.14426,622.25 c -1.0912,-2.55004 -1.06651,-2.60886 0.33949,-0.80887 0.83394,1.06762 1.51625,2.30512 1.51625,2.75 0,1.51991 -0.67833,0.81036 -1.85574,-1.94113 z m 91.58907,1.62591 c 0.67834,-0.68342 1.48524,-0.99067 1.79313,-0.68278 0.30789,0.30789 -0.24711,0.86705 -1.23333,1.24258 -1.4252,0.54268 -1.54006,0.42782 -0.5598,-0.5598 z m -308.65438,-1.45924 c 0.048,-1.16495 0.28494,-1.4019 0.60416,-0.60417 0.28887,0.72187 0.25335,1.58438 -0.0789,1.91667 -0.33229,0.33229 -0.56864,-0.25834 -0.52522,-1.3125 z M 406,623 c -1.2819,-0.82843 -1.24555,-0.9716 0.25,-0.98469 0.9625,-0.008 1.75,0.43469 1.75,0.98469 0,1.21961 -0.11279,1.21961 -2,0 z m 57.81796,-0.21796 c 0.53328,-0.53328 1.8049,-0.79255 2.82582,-0.57615 1.37482,0.29142 1.12336,0.54288 -0.9696,0.96961 -1.82482,0.37205 -2.48236,0.23268 -1.85622,-0.39346 z M 86.078947,621.41667 c 0.04798,-1.16495 0.284941,-1.4019 0.604167,-0.60417 0.288871,0.72187 0.253344,1.58438 -0.07895,1.91667 -0.332292,0.33229 -0.568641,-0.25834 -0.52522,-1.3125 z m 171.000003,0 c 0.048,-1.16495 0.28494,-1.4019 0.60416,-0.60417 0.28887,0.72187 0.25335,1.58438 -0.0789,1.91667 -0.33229,0.33229 -0.56864,-0.25834 -0.52522,-1.3125 z m 73.17105,0.894 c 0.9625,-0.25152 2.5375,-0.25152 3.5,0 0.9625,0.25153 0.175,0.45733 -1.75,0.45733 -1.925,0 -2.7125,-0.2058 -1.75,-0.45733 z m 63.31429,-1.01754 c -0.54268,-1.4252 -0.42782,-1.54006 0.5598,-0.5598 0.68342,0.67834 0.99067,1.48524 0.68278,1.79313 -0.30789,0.30789 -0.86705,-0.24711 -1.24258,-1.23333 z M 401.27236,619 c 0,-2.475 0.19502,-3.4875 0.43337,-2.25 0.23836,1.2375 0.23836,3.2625 0,4.5 -0.23835,1.2375 -0.43337,0.225 -0.43337,-2.25 z m 69.54014,3.31689 c 0.72187,-0.28887 1.58438,-0.25335 1.91667,0.0789 0.33229,0.33229 -0.25834,0.56864 -1.3125,0.52522 -1.16495,-0.048 -1.4019,-0.28494 -0.60417,-0.60416 z m 55.69458,-0.30544 c -0.35034,-0.56686 0.0511,-0.7345 0.94098,-0.39301 1.73242,0.66479 2.04939,1.38156 0.61096,1.38156 -0.51754,0 -1.21592,-0.44485 -1.55194,-0.98855 z m 115.30542,0.30544 c 0.72187,-0.28887 1.58438,-0.25335 1.91667,0.0789 0.33229,0.33229 -0.25834,0.56864 -1.3125,0.52522 -1.16495,-0.048 -1.4019,-0.28494 -0.60417,-0.60416 z M 657.43709,619.75 654.5,616.5 l 3.25,2.93709 c 3.02946,2.73778 3.70965,3.56291 2.93709,3.56291 -0.1721,0 -1.6346,-1.4625 -3.25,-3.25 z m 48.83194,2.55701 c 0.97297,-0.25354 2.32297,-0.23687 3,0.0371 0.67703,0.27393 -0.11903,0.48137 -1.76903,0.46099 -1.65,-0.0204 -2.20394,-0.2445 -1.23097,-0.49804 z M 317.5,620 c 0.99549,-1.1 2.03498,-2 2.30998,-2 0.275,0 -0.31449,0.9 -1.30998,2 -0.99549,1.1 -2.03498,2 -2.30998,2 -0.275,0 0.31449,-0.9 1.30998,-2 z m 50.5,-1.5 c 0,-1.925 0.17577,-3.5 0.39059,-3.5 0.21483,0 0.57447,1.575 0.7992,3.5 0.22474,1.925 0.049,3.5 -0.39059,3.5 C 368.35964,622 368,620.425 368,618.5 Z m 203,3.12244 c 0,-0.20765 0.7875,-0.99515 1.75,-1.75 1.58606,-1.24387 1.62143,-1.2085 0.37756,0.37756 C 571.82119,621.91575 571,622.44548 571,621.62244 Z M 693,619.5 c 1.29175,-1.375 2.57363,-2.5 2.84863,-2.5 0.275,0 -0.55688,1.125 -1.84863,2.5 -1.29175,1.375 -2.57363,2.5 -2.84863,2.5 -0.275,0 0.55688,-1.125 1.84863,-2.5 z m -97.55009,0.41895 c -0.36747,-0.59458 -2.08153,-1.9429 -3.80902,-2.99626 -1.72749,-1.05337 -2.58549,-1.9169 -1.90667,-1.91895 1.27975,-0.004 8.29763,5.91507 7.0748,5.96695 -0.38004,0.0161 -0.99164,-0.45716 -1.35911,-1.05174 z M 108.15789,618 c 0,-1.375 0.22698,-1.9375 0.50439,-1.25 0.27741,0.6875 0.27741,1.8125 0,2.5 -0.27741,0.6875 -0.50439,0.125 -0.50439,-1.25 z M 370,619.62244 c 0,-0.20765 0.7875,-0.99515 1.75,-1.75 1.58606,-1.24387 1.62143,-1.2085 0.37756,0.37756 C 370.82119,619.91575 370,620.44548 370,619.62244 Z m 375.26903,-0.31543 c 0.97297,-0.25354 2.32297,-0.23687 3,0.0371 0.67703,0.27393 -0.11903,0.48137 -1.76903,0.46099 -1.65,-0.0204 -2.20394,-0.2445 -1.23097,-0.49804 z M 571.34281,611.5 c 0.004,-4.4 0.17944,-6.07561 0.39069,-3.72357 0.21124,2.35204 0.20827,5.95204 -0.007,8 -0.21487,2.04796 -0.38771,0.12357 -0.38408,-4.27643 z m 142.52963,5.75 c -1.24387,-1.58606 -1.2085,-1.62143 0.37756,-0.37756 0.9625,0.75485 1.75,1.54235 1.75,1.75 0,0.82304 -0.82119,0.29331 -2.12756,-1.37244 z m -392.13911,-0.37409 c 0.67834,-0.68342 1.48524,-0.99067 1.79313,-0.68278 0.30789,0.30789 -0.24711,0.86705 -1.23333,1.24258 -1.4252,0.54268 -1.54006,0.42782 -0.5598,-0.5598 z M 85.157895,615 c 0,-1.375 0.226973,-1.9375 0.504386,-1.25 0.277412,0.6875 0.277412,1.8125 0,2.5 -0.277413,0.6875 -0.504386,0.125 -0.504386,-1.25 z m 289.575435,0.87591 c 0.67834,-0.68342 1.48524,-0.99067 1.79313,-0.68278 0.30789,0.30789 -0.24711,0.86705 -1.23333,1.24258 -1.4252,0.54268 -1.54006,0.42782 -0.5598,-0.5598 z m 173.25024,0.38047 c 2.46597,-0.21681 4.82158,-0.92569 5.23469,-1.57529 0.49969,-0.78574 0.75624,-0.5953 0.76643,0.56891 0.0128,1.46832 -0.82972,1.72188 -5.23469,1.57529 l -5.25,-0.1747 z m 201.81943,0.0637 c 0.97661,-0.39128 0.85136,-0.87311 -0.5,-1.9235 -1.71547,-1.33342 -1.70962,-1.36864 0.12061,-0.72539 1.57822,0.55467 1.80222,0.33067 1.24755,-1.24755 -0.62837,-1.78789 -0.58072,-1.80124 0.67526,-0.18915 0.74323,0.95395 1.75204,1.40395 2.2418,1 0.48976,-0.40395 0.038,0.27804 -1.00386,1.51554 -1.04189,1.2375 -2.38709,2.21447 -2.98935,2.17105 -0.60225,-0.0434 -0.50866,-0.31387 0.20799,-0.601 z M 209.07895,614.4167 c 0.048,-1.16495 0.28494,-1.4019 0.60416,-0.60417 0.28887,0.72187 0.25335,1.58438 -0.0789,1.91667 -0.3323,0.33229 -0.56864,-0.25834 -0.52522,-1.3125 z m 208.31058,0.15606 c -0.30123,-0.785 -0.34839,-2.4725 -0.10479,-3.75 0.34224,-1.79484 0.47385,-1.59494 0.57908,0.87955 L 418,614.9046 l 6.25,0.35503 6.25,0.35504 -6.28138,0.19268 c -4.65253,0.14272 -6.42342,-0.17743 -6.82909,-1.23459 z m 322.10492,-0.57886 c -0.99854,-1.10337 -1.63078,-2.1843 -1.40499,-2.40206 0.2258,-0.21776 1.21905,0.685 2.20722,2.00613 2.18239,2.91772 1.69683,3.15736 -0.80223,0.39593 z m -408.73279,0.29887 c 1.24391,-0.23919 3.04391,-0.23011 4,0.0202 0.95609,0.25029 -0.0617,0.446 -2.26166,0.4349 -2.2,-0.0111 -2.98225,-0.21589 -1.73834,-0.45508 z m 49.48834,0.0179 c 0.9625,-0.25152 2.5375,-0.25152 3.5,0 0.9625,0.25153 0.175,0.45733 -1.75,0.45733 -1.925,0 -2.7125,-0.2058 -1.75,-0.45733 z m 86.01375,-0.0282 c 1.52006,-0.22986 3.77006,-0.22371 5,0.0136 1.22994,0.23736 -0.0138,0.42542 -2.76375,0.41792 -2.75,-0.008 -3.75631,-0.20172 -2.23625,-0.43157 z m 115.98625,0.0282 c 0.9625,-0.25152 2.5375,-0.25152 3.5,0 0.9625,0.25153 0.175,0.45733 -1.75,0.45733 -1.925,0 -2.7125,-0.2058 -1.75,-0.45733 z m 60.01375,-0.0282 c 1.52006,-0.22986 3.77006,-0.22371 5,0.0136 1.22994,0.23736 -0.0137,0.42542 -2.76375,0.41792 -2.75,-0.008 -3.75631,-0.20172 -2.23625,-0.43157 z m 61.49791,0.0103 c 1.24391,-0.23919 3.04391,-0.23011 4,0.0202 0.95609,0.25029 -0.0617,0.446 -2.26166,0.4349 -2.2,-0.0111 -2.98225,-0.21589 -1.73834,-0.45508 z m 38.65293,-0.43094 c -0.43381,-0.70191 -0.29154,-0.90379 0.35522,-0.50407 0.59335,0.36672 1.28568,-0.12625 1.53851,-1.09549 0.41096,-1.57547 0.47197,-1.58302 0.57568,-0.0713 0.14541,2.11971 -1.50277,3.23488 -2.46941,1.67082 z m -438.8503,-1.56867 c -0.54268,-1.4252 -0.42782,-1.54006 0.5598,-0.5598 0.68342,0.67834 0.99067,1.48524 0.68278,1.79313 -0.30789,0.30789 -0.86705,-0.24711 -1.24258,-1.23333 z M 107.232,610 c 0,-1.925 0.2058,-2.7125 0.45733,-1.75 0.25152,0.9625 0.25152,2.5375 0,3.5 -0.25153,0.9625 -0.45733,0.175 -0.45733,-1.75 z m 299.92589,1 c 0,-1.375 0.22698,-1.9375 0.50439,-1.25 0.27741,0.6875 0.27741,1.8125 0,2.5 -0.27741,0.6875 -0.50439,0.125 -0.50439,-1.25 z m 133.71455,0.25 c -1.24387,-1.58606 -1.2085,-1.62143 0.37756,-0.37756 0.9625,0.75485 1.75,1.54235 1.75,1.75 0,0.82304 -0.82119,0.29331 -2.12756,-1.37244 z M 289,611 c -0.90129,-0.58246 -1.02463,-0.97549 -0.30902,-0.98469 0.65504,-0.008 1.4691,0.43469 1.80902,0.98469 0.7673,1.24153 0.42112,1.24153 -1.5,0 z m -10.25,-1.66228 c 0.6875,-0.27741 1.8125,-0.27741 2.5,0 0.6875,0.27741 0.125,0.50439 -1.25,0.50439 -1.375,0 -1.9375,-0.22698 -1.25,-0.50439 z m 5,0 c 0.6875,-0.27741 1.8125,-0.27741 2.5,0 0.6875,0.27741 0.125,0.50439 -1.25,0.50439 -1.375,0 -1.9375,-0.22698 -1.25,-0.50439 z M 299.43709,606.75 296.5,603.5 l 3.25,2.93709 c 3.02946,2.73778 3.70965,3.56291 2.93709,3.56291 -0.1721,0 -1.6346,-1.4625 -3.25,-3.25 z m 249.13549,-0.65557 -2.92742,-3.59443 3.37614,3.21795 c 1.85687,1.76987 3.17421,3.38737 2.92742,3.59443 -0.2468,0.20707 -1.76606,-1.24101 -3.37614,-3.21795 z M 737.15789,608 c 0,-1.375 0.22698,-1.9375 0.50439,-1.25 0.27741,0.6875 0.27741,1.8125 0,2.5 -0.27741,0.6875 -0.50439,0.125 -0.50439,-1.25 z M 264.5,607 c 0.99549,-1.1 2.03498,-2 2.30998,-2 0.275,0 -0.31449,0.9 -1.30998,2 -0.99549,1.1 -2.03498,2 -2.30998,2 -0.275,0 0.31449,-0.9 1.30998,-2 z m 169.37244,0.25 c -1.24387,-1.58606 -1.2085,-1.62143 0.37756,-0.37756 0.9625,0.75485 1.75,1.54235 1.75,1.75 0,0.82304 -0.82119,0.29331 -2.12756,-1.37244 z M 440,608.62244 c 0,-0.20765 0.7875,-0.99515 1.75,-1.75 1.58606,-1.24387 1.62143,-1.2085 0.37756,0.37756 C 440.82119,608.91575 440,609.44548 440,608.62244 Z m 92.26903,-0.31543 c 0.97297,-0.25354 2.32297,-0.23687 3,0.0371 0.67703,0.27393 -0.11903,0.48137 -1.76903,0.46099 -1.65,-0.0204 -2.20394,-0.2445 -1.23097,-0.49804 z m 76.23805,-0.29556 c -0.35034,-0.56686 0.0511,-0.7345 0.94098,-0.39301 1.73242,0.66479 2.04939,1.38156 0.61096,1.38156 -0.51754,0 -1.21592,-0.44485 -1.55194,-0.98855 z m 142.31742,-1.68563 c 0.42673,-2.09296 0.67819,-2.34442 0.96961,-0.9696 0.2164,1.02092 -0.0429,2.29254 -0.57615,2.82582 -0.62614,0.62614 -0.76551,-0.0314 -0.39346,-1.85622 z M 84.420187,588.5 c -8.84e-4,-11 0.145219,-15.63644 0.324673,-10.30319 0.179454,5.33324 0.180178,14.33324 0.0016,20 C 84.567898,603.86356 84.421071,599.5 84.420187,588.5 Z M 516.5,606 c 0.99549,-1.1 2.03498,-2 2.30998,-2 0.275,0 -0.31449,0.9 -1.30998,2 -0.99549,1.1 -2.03498,2 -2.30998,2 -0.275,0 0.31449,-0.9 1.30998,-2 z m 229.75,1.36926 c 1.94156,-0.57238 2.30406,-1.92782 0.725,-2.71093 -0.56375,-0.27958 -0.45125,-0.39208 0.25,-0.25 2.04871,0.4151 1.46582,3.0446 -0.725,3.27056 -1.55435,0.16031 -1.61006,0.0913 -0.25,-0.30963 z m -324.48834,-1.07652 c 1.24391,-0.23919 3.04391,-0.23011 4,0.0202 0.95609,0.25029 -0.0617,0.446 -2.26166,0.4349 -2.2,-0.0111 -2.98225,-0.21589 -1.73834,-0.45508 z m 313.31729,-0.87607 c 0.048,-1.16495 0.28494,-1.4019 0.60416,-0.60417 0.28887,0.72187 0.25335,1.58438 -0.0789,1.91667 -0.33229,0.33229 -0.56864,-0.25834 -0.52522,-1.3125 z m -308,-2 c 0.048,-1.16495 0.28494,-1.4019 0.60416,-0.60417 0.28887,0.72187 0.25335,1.58438 -0.0789,1.91667 -0.33229,0.33229 -0.56864,-0.25834 -0.52522,-1.3125 z m 5.03705,-0.0117 c -0.15814,-2.85604 3.16765,-5.67071 6.05153,-5.12153 2.19309,0.41763 2.17546,0.45231 -0.29509,0.58036 -2.85729,0.14809 -4.38342,1.52226 -5.14883,4.63618 -0.473,1.92429 -0.496,1.92069 -0.60761,-0.095 z m 10.96295,0.0117 c 0.048,-1.16495 0.28494,-1.4019 0.60416,-0.60417 0.28887,0.72187 0.25335,1.58438 -0.0789,1.91667 -0.33229,0.33229 -0.56864,-0.25834 -0.52522,-1.3125 z M 738,604.30917 c 0,-1.6677 4.79821,-5.54701 6.17852,-4.99528 0.90524,0.36184 0.79313,0.55308 -0.35594,0.60716 -0.92258,0.0434 -2.61008,1.26464 -3.75,2.71381 C 738.93266,604.08403 738,604.83747 738,604.30917 Z M 294,603 c -0.90129,-0.58246 -1.02463,-0.97549 -0.30902,-0.98469 0.65504,-0.008 1.4691,0.43469 1.80902,0.98469 0.7673,1.24153 0.42112,1.24153 -1.5,0 z m 116.5,-1 c 0.99549,-1.1 2.03498,-2 2.30998,-2 0.275,0 -0.31449,0.9 -1.30998,2 -0.99549,1.1 -2.03498,2 -2.30998,2 -0.275,0 0.31449,-0.9 1.30998,-2 z m 110.94113,0.55517 C 522.50875,601.69982 523.82125,601 524.3578,601 c 1.27054,0 0.70323,0.4619 -2.3578,1.91971 -2.35727,1.12265 -2.38918,1.10183 -0.55887,-0.36454 z M 607,601.05902 c 0,-0.51754 0.44485,-1.21592 0.98855,-1.55194 0.56686,-0.35034 0.7345,0.0511 0.39301,0.94098 C 607.71677,602.18048 607,602.49745 607,601.05902 Z M 106.32814,594.5 c 0.004,-3.85 0.18518,-5.30246 0.40166,-3.2277 0.21647,2.07477 0.21284,5.22477 -0.008,7 -0.22091,1.77524 -0.39803,0.0777 -0.39359,-3.7723 z M 276.75,600.33772 c 0.6875,-0.27741 1.8125,-0.27741 2.5,0 0.6875,0.27741 0.125,0.50439 -1.25,0.50439 -1.375,0 -1.9375,-0.22698 -1.25,-0.50439 z m 10.0625,-0.0208 c 0.72187,-0.28887 1.58438,-0.25335 1.91667,0.0789 0.33229,0.33229 -0.25834,0.56864 -1.3125,0.52522 -1.16495,-0.048 -1.4019,-0.28494 -0.60417,-0.60416 z m 239.9375,0.0208 c 0.6875,-0.27741 1.8125,-0.27741 2.5,0 0.6875,0.27741 0.125,0.50439 -1.25,0.50439 -1.375,0 -1.9375,-0.22698 -1.25,-0.50439 z m 11.0625,-0.0208 c 0.72187,-0.28887 1.58438,-0.25335 1.91667,0.0789 0.33229,0.33229 -0.25834,0.56864 -1.3125,0.52522 -1.16495,-0.048 -1.4019,-0.28494 -0.60417,-0.60416 z m 209,-1 c 0.72187,-0.28887 1.58438,-0.25335 1.91667,0.0789 0.33229,0.33229 -0.25834,0.56864 -1.3125,0.52522 -1.16495,-0.048 -1.4019,-0.28494 -0.60417,-0.60416 z m -330,-1 c 0.72187,-0.28887 1.58438,-0.25335 1.91667,0.0789 0.33229,0.33229 -0.25834,0.56864 -1.3125,0.52522 -1.16495,-0.048 -1.4019,-0.28494 -0.60417,-0.60416 z m 6.9375,0.0208 c 0.6875,-0.27741 1.8125,-0.27741 2.5,0 0.6875,0.27741 0.125,0.50439 -1.25,0.50439 -1.375,0 -1.9375,-0.22698 -1.25,-0.50439 z m 316.98333,-0.46181 c 0.67834,-0.68342 1.48524,-0.99067 1.79313,-0.68278 0.30789,0.30789 -0.24711,0.86705 -1.23333,1.24258 -1.4252,0.54268 -1.54006,0.42782 -0.5598,-0.5598 z M 108.8125,587.31689 c 0.72187,-0.28887 1.58437,-0.25335 1.91667,0.0789 0.33229,0.33229 -0.25834,0.56864 -1.3125,0.52522 -1.16495,-0.048 -1.4019,-0.28494 -0.60417,-0.60416 z m 5,-1 c 0.72187,-0.28887 1.58437,-0.25335 1.91667,0.0789 0.33229,0.33229 -0.25834,0.56864 -1.3125,0.52522 -1.16495,-0.048 -1.4019,-0.28494 -0.60417,-0.60416 z M 146,573.57037 c 0,-0.275 0.9,-0.98167 2,-1.57037 1.1,-0.5887 2,-0.84537 2,-0.57037 0,0.275 -0.9,0.98167 -2,1.57037 -1.1,0.5887 -2,0.84537 -2,0.57037 z M 231,569 c -0.90129,-0.58246 -1.02463,-0.97549 -0.30902,-0.98469 0.65504,-0.008 1.4691,0.43469 1.80902,0.98469 0.7673,1.24153 0.42112,1.24153 -1.5,0 z M 89.269032,568.30701 c 0.972967,-0.25354 2.322967,-0.23687 3,0.0371 0.677032,0.27393 -0.119032,0.48137 -1.769032,0.46099 -1.65,-0.0204 -2.203936,-0.2445 -1.230968,-0.49804 z M 154,568.62244 c 0,-0.20765 0.7875,-0.99515 1.75,-1.75 1.58606,-1.24387 1.62143,-1.2085 0.37756,0.37756 C 154.82119,568.91575 154,569.44548 154,568.62244 Z m -57.1875,-1.30555 c 0.721875,-0.28887 1.584375,-0.25335 1.916667,0.0789 0.332291,0.33229 -0.258334,0.56864 -1.3125,0.52522 -1.164943,-0.048 -1.4019,-0.28494 -0.604167,-0.60416 z m 5,-1 c 0.72187,-0.28887 1.58437,-0.25335 1.91667,0.0789 0.33229,0.33229 -0.25834,0.56864 -1.3125,0.52522 -1.16495,-0.048 -1.4019,-0.28494 -0.60417,-0.60416 z M 159,566 c -0.90129,-0.58246 -1.02463,-0.97549 -0.30902,-0.98469 0.65504,-0.008 1.4691,0.43469 1.80902,0.98469 0.7673,1.24153 0.42112,1.24153 -1.5,0 z m -42,-4 c 0.825,-0.53316 1.95,-0.96937 2.5,-0.96937 0.55,0 0.325,0.43621 -0.5,0.96937 -0.825,0.53316 -1.95,0.96937 -2.5,0.96937 -0.55,0 -0.325,-0.43621 0.5,-0.96937 z m 5,-2 c 0.825,-0.53316 1.95,-0.96937 2.5,-0.96937 0.55,0 0.325,0.43621 -0.5,0.96937 -0.825,0.53316 -1.95,0.96937 -2.5,0.96937 -0.55,0 -0.325,-0.43621 0.5,-0.96937 z m 10,-4.42963 c 0,-0.275 0.9,-0.98167 2,-1.57037 1.1,-0.5887 2,-0.84537 2,-0.57037 0,0.275 -0.9,0.98167 -2,1.57037 -1.1,0.5887 -2,0.84537 -2,0.57037 z m 7,-3.94793 c 0,-0.20765 0.7875,-0.99515 1.75,-1.75 1.58606,-1.24387 1.62143,-1.2085 0.37756,0.37756 C 139.82119,551.91575 139,552.44548 139,551.62244 Z m 4,-3 c 0,-0.20765 0.7875,-0.99515 1.75,-1.75 1.58606,-1.24387 1.62143,-1.2085 0.37756,0.37756 C 143.82119,548.91575 143,549.44548 143,548.62244 Z m 4,-3 c 0,-0.20765 0.7875,-0.99515 1.75,-1.75 1.58606,-1.24387 1.62143,-1.2085 0.37756,0.37756 C 147.82119,545.91575 147,546.44548 147,545.62244 Z M 155,538.5 c 1.29175,-1.375 2.57363,-2.5 2.84863,-2.5 0.275,0 -0.55688,1.125 -1.84863,2.5 -1.29175,1.375 -2.57363,2.5 -2.84863,2.5 -0.275,0 0.55688,-1.125 1.84863,-2.5 z m 4,-1.55902 c 0,-0.58246 0.45,-0.7809 1,-0.44098 0.55,0.33992 1,0.81648 1,1.05902 0,0.24254 -0.45,0.44098 -1,0.44098 -0.55,0 -1,-0.47656 -1,-1.05902 z"
         id="path266" />
      <path
         style="fill:#071956"
         d="M 149.15624,708.00168 C 112.43442,688.50868 92.458485,659.78663 86.079895,617.30845 85.485953,613.35309 85,600.92774 85,589.69654 v -20.42035 l 6.496221,-0.66556 c 9.782819,-1.00228 24.933419,-5.24715 34.160119,-9.57092 9.94055,-4.6583 16.49009,-8.93187 26.09366,-17.02607 L 159,535.9031 v 14.47166 14.47165 l -6.75,4.46114 c -12.324,8.14506 -28.8986,15.05237 -43.63891,18.18611 l -2.88892,0.61417 0.67222,11.19609 c 2.04825,34.11437 11.51435,57.55942 29.90567,74.06853 C 140.56053,677.19689 157.1084,688 158.7061,688 c 3.84269,0 20.55155,-12.31356 29.07982,-21.43031 L 194,659.92683 v 15.49763 c 0,17.77853 0.69743,16.26 -11.07332,24.11027 -6.09648,4.06593 -22.78909,13.43502 -23.92668,13.42937 -0.275,-10e-4 -4.70469,-2.23446 -9.84376,-4.96242 z m 125.05882,-51.25845 c -4.78883,-1.53448 -11.64673,-8.00274 -14.16505,-13.36023 -4.83632,-10.28883 -3.44525,-24.77607 3.21784,-33.51196 8.81686,-11.55967 27.02252,-12.65047 36.9291,-2.21262 2.86344,3.017 6.18563,9.91353 5.3932,11.19572 -0.26041,0.42135 -2.41223,0.85987 -4.78181,0.97448 -4.11945,0.19925 -4.37831,0.0404 -5.90418,-3.62302 -3.93797,-9.45458 -18.18767,-9.57152 -25.05272,-0.2056 -4.52393,6.17196 -4.2161,19.82837 0.6114,27.12321 2.99881,4.53151 9.73445,7.43756 14.96459,6.45638 4.06588,-0.76276 9.34665,-4.85518 10.63391,-8.24092 0.75126,-1.97598 1.59088,-2.33867 5.41391,-2.33867 5.50163,0 5.62272,0.76 1.27475,8.0008 -5.62279,9.3638 -17.2876,13.34642 -28.53494,9.74243 z m 48.95321,-0.88896 C 313.37176,651.00512 309.45701,636.15203 315.03619,625 c 3.26463,-6.52557 9.44023,-10 17.77441,-10 11.28688,0 19.21229,8.83373 19.16744,21.36419 -0.0602,16.81076 -14.4947,26.57586 -28.80977,19.49008 z m 13.6867,-6.27927 c 7.78198,-4.02422 7.85386,-22.08861 0.10385,-26.0963 -4.59468,-2.376 -7.79317,-1.84435 -11.55882,1.9213 -3.20595,3.20595 -3.39979,3.79094 -3.39626,10.25 0.007,12.1258 6.5202,18.23314 14.85123,13.925 z m 119.04291,6.1424 c -4.81428,-3.2341 -6.78347,-9.10365 -4.80137,-14.31143 1.91791,-5.03914 5.71984,-7.12263 15.46923,-8.47728 8.52291,-1.18424 10.43426,-2.1095 10.43426,-5.05113 0,-5.89913 -10.10059,-8.07149 -15.12912,-3.25386 -2.30369,2.20708 -3.30484,2.51747 -6.30472,1.95469 -4.20745,-0.78932 -4.47739,-2.30311 -1.06691,-5.98308 7.7231,-8.33337 25.46718,-7.17998 29.81526,1.93803 C 485.67016,625.37616 486,629.0945 486,641.53393 V 657 h -4.5 c -4.21155,0 -4.5,-0.17142 -4.5,-2.67431 v -2.67432 l -2.25,2.1077 c -5.07532,4.75435 -13.40233,5.61934 -18.85212,1.95833 z m 17.69736,-7.04566 c 2.14,-1.84076 2.72749,-3.25412 2.80576,-6.75 0.0772,-3.4458 -0.23207,-4.34705 -1.401,-4.08332 -0.825,0.18613 -3.92468,0.73516 -6.88818,1.22006 -6.07052,0.9933 -9.11182,3.1712 -9.11182,6.52508 0,3.53004 2.6175,5.41644 7.51566,5.41644 3.13661,0 5.13802,-0.65821 7.07958,-2.32826 z M 524.5,657.19871 c -6.63998,-2.31972 -11.29805,-7.17937 -12.19815,-12.72605 L 511.73832,641 h 4.52243 c 4.00472,0 4.59515,0.28974 5.15768,2.53102 2.10767,8.39762 20.86782,8.43323 22.97348,0.0436 1.3383,-5.33222 -2.28274,-8.2689 -13.74657,-11.14852 -9.40219,-2.36176 -15.2237,-6.28676 -16.71702,-11.27103 -2.25512,-7.52689 0.7765,-14.43336 7.93968,-18.08774 11.16919,-5.69809 24.96851,-2.19563 30.00981,7.61692 2.15316,4.19097 1.47241,5.31574 -3.21729,5.31574 -3.68193,0 -4.51568,-0.3867 -5.50224,-2.55196 -2.46553,-5.41126 -13.74813,-6.85819 -18.26405,-2.34227 -2.52702,2.52702 -2.42659,7.32035 0.20474,9.77181 1.15444,1.07552 5.09194,2.69246 8.75,3.59321 13.73546,3.38216 20.16721,8.78932 20.13458,16.92709 -0.0226,5.62374 -3.54311,11.43608 -8.48355,14.00611 -4.15115,2.15943 -16.84963,3.24468 -21,1.79472 z m 112,-0.62162 c -7.11346,-3.18833 -10.64188,-9.16786 -11.25708,-19.07709 -0.38716,-6.23604 -0.12247,-7.59226 2.42529,-12.4268 C 631.18865,618.39295 636.75348,615 644.1894,615 c 11.68562,0 18.53725,7.20513 19.1511,20.13915 L 663.5,638.5 648.75,638.77673 634,639.05347 v 2.45749 c 0,4.17211 4.8807,8.60855 10.12033,9.19914 3.9555,0.44584 5.00483,0.13656 7.96756,-2.34832 2.67548,-2.24396 4.22169,-2.79478 7.16211,-2.55141 4.3144,0.35707 4.40739,0.59929 1.84398,4.80312 -3.85541,6.32262 -16.79347,9.45986 -24.59398,5.9636 z m 17.9728,-24.53307 c 0.93013,-1.505 -2.09053,-7.76907 -4.3224,-8.96353 -3.56863,-1.90987 -8.76283,-1.27749 -12.02023,1.46343 -3.18081,2.67648 -4.68276,5.75296 -3.6357,7.44713 0.79519,1.28665 19.18573,1.33541 19.97833,0.053 z M 700,657.33217 c -9.11925,-3.75311 -13.63901,-15.12015 -11.02285,-27.72209 2.10518,-10.14061 8.64166,-15.28552 18.24727,-14.36254 4.3674,0.41965 5.64809,1.03501 7.98842,3.83834 L 718,622.42445 V 611.71223 601 h 4.5 4.5 v 28 28 h -4.5 c -4.39471,0 -4.5,-0.0748 -4.5,-3.19617 v -3.19616 l -3.44345,3.33752 c -2.75388,2.66916 -4.40601,3.40429 -8.25,3.67092 -2.6436,0.18337 -5.48155,0.0556 -6.30655,-0.28394 z m 13.05539,-8.36181 C 716.08954,647.34653 718,642.57268 718,636.61476 c 0,-7.18861 -1.23975,-10.18071 -5.22507,-12.61056 -4.43725,-2.70539 -7.17116,-2.51682 -10.81306,0.7458 -5.7725,5.17134 -6.05183,18.19538 -0.49279,22.97706 2.84632,2.4483 8.25106,3.02827 11.58631,1.2433 z M 360,636 v -21 h 4 c 3.90476,0 4,0.0833 4,3.5 0,3.5719 1.32591,4.69904 2.35943,2.00572 1.82353,-4.75205 12.75885,-7.04727 18.76881,-3.9394 5.47582,2.83165 6.82475,7.79109 6.8498,25.18368 L 396,657 h -4.42795 -4.42796 l -0.32204,-14.89817 c -0.2742,-12.68436 -0.59098,-15.19487 -2.13189,-16.89486 -3.8014,-4.19388 -11.62076,-3.17565 -14.22054,1.85179 C 369.38893,629.14857 369,633.48656 369,643.45034 V 657 h -4.5 -4.5 z m 48,3.42054 V 621.84109 L 405,622.5 c -2.95075,0.64809 -3,0.59194 -3,-3.42054 0,-3.82592 0.17855,-4.07946 2.87277,-4.07946 2.71908,0 2.89864,-0.26924 3.35634,-5.03263 0.79648,-8.28908 7.11448,-12.73559 16.06273,-11.30471 3.33001,0.53249 3.78916,0.91184 3.30168,2.72792 -0.31141,1.16018 -0.57236,2.67192 -0.57987,3.35942 -0.008,0.75429 -1.37331,1.25 -3.44222,1.25 -4.42008,0 -6.76735,2.34727 -6.37543,6.37543 L 417.5,615.5 h 12.5 12.5 v 20.74386 20.74387 l -4.83515,0.006 -4.83515,0.006 0.33515,-17.25 0.33515,-17.25 -8.25,-0.29044 -8.25,-0.29044 v 17.54044 17.54044 H 412.5 408 V 639.42027 Z M 562,629 v -28 h 4.5 4.5 l 0.036,10.75 0.036,10.75 2.21403,-2.62164 C 576.36369,616.23402 579.14633,615 584.28638,615 c 5.016,0 10.42429,3.0577 12.43431,7.03002 0.84508,1.6701 1.2546,7.73236 1.26457,18.71998 L 598,657 h -4.5 -4.5 v -14.56574 c 0,-8.01116 -0.4405,-15.38883 -0.97889,-16.39482 -1.23176,-2.30156 -5.90002,-3.97641 -9.28159,-3.32998 -1.41986,0.27143 -3.6296,1.60771 -4.91054,2.96953 -2.17947,2.31708 -2.34976,3.40189 -2.65275,16.89852 L 570.85245,657 H 566.42623 562 Z m 46,7 v -21 h 4.5 4.5 v 21 21 h -4.5 -4.5 z m 63,-7 v -28 h 4.5 4.5 v 28 28 h -4.5 -4.5 z m 68.78161,-12.25497 c -5.92061,-4.88965 -5.654,-14.02286 0.51921,-17.7869 8.87702,-5.41264 19.70313,2.40993 16.7903,12.13209 -2.27328,7.58752 -11.37066,10.55953 -17.30951,5.65481 z m 13.14581,-2.37989 c 2.02449,-2.57372 2.69571,-7.57772 1.4514,-10.82034 -0.83397,-2.17328 -5.61105,-4.5448 -9.15485,-4.5448 -7.16511,0 -10.53808,10.75257 -4.89548,15.60613 3.96913,3.41411 9.81174,3.30235 12.59893,-0.24099 z m -10.21603,-0.98709 C 742.32012,612.98679 742,610.26667 742,607.33333 V 602 l 3.25,0.0153 c 4.86526,0.0229 5.58735,0.92214 5.40999,6.73699 -0.17007,5.57616 -0.92231,6.49459 -2.65999,3.2477 -1.37292,-2.56533 -2.86177,-2.5479 -3.82084,0.0447 -0.41601,1.12459 -1.07651,1.72459 -1.46777,1.33333 z m 5.84246,-6.46518 c 0.94095,-1.52249 -1.10241,-3.30008 -2.96977,-2.58351 -0.89841,0.34476 -1.3022,1.24162 -0.96023,2.13279 0.68249,1.77855 2.94872,2.03846 3.93,0.45072 z m -313.89886,0.25839 C 431.34841,603.51753 433.19772,599 438,599 c 4.87995,0 6.80241,5.05887 3.17126,8.34501 -2.37688,2.15105 -4.46269,2.09544 -6.51627,-0.17375 z M 609,607 c -2.54373,-2.54373 -2.52975,-4.47025 0.0512,-7.05115 2.26563,-2.26563 5.53663,-1.90736 7.69885,0.84325 1.87931,2.39071 1.51067,4.91191 -0.97251,6.6512 C 612.84018,609.50067 611.40692,609.40692 609,607 Z"
         id="path264" />
    </g>
  </g>
</svg>
